Coordinates
version=1
nRows=21
nColumns=22
inDegrees=yes

Units are S.I. units (second, meters, Newtons, ...)
If the header above contains a line with 'inDegrees', this indicates whether rotational values are in degrees (yes) or radians (no).

endheader
time	pelvis_tilt	pelvis_list	pelvis_rotation	pelvis_tx	pelvis_ty	pelvis_tz	hip_flexion_r	hip_adduction_r	hip_rotation_r	knee_angle_r	ankle_angle_r	subtalar_angle_r	hip_flexion_l	hip_adduction_l	hip_rotation_l	knee_angle_l	ankle_angle_l	subtalar_angle_l	lumbar_extension	lumbar_bending	lumbar_rotation
      2.40000000	     -1.02255691	      5.16979414	    177.42631598	     -0.47380166	      1.01571011	     -0.14039167	     11.96033377	      8.84684494	     -4.89856414	    -15.63767050	      2.87517485	     -2.35396472	      6.33953638	     -6.89860271	     -2.70696491	    -51.50368340	      8.72355905	      6.71289119	    -13.51926027	      5.98141770	      7.88413104
      2.41000000	     -0.92165326	      5.15383428	    177.60855660	     -0.46808733	      1.01490043	     -0.13920974	     12.51339205	      8.73746959	     -5.15791761	    -15.75433829	      2.60770927	     -2.36727644	      5.44540098	     -6.59425740	     -2.11248898	    -50.34297050	      8.20281591	      7.01443114	    -13.35511939	      6.02152002	      7.43861771
      2.42000000	     -0.83009465	      5.16651764	    177.79610175	     -0.46224707	      1.01404895	     -0.13800918	     13.06003608	      8.65308536	     -5.43155348	    -15.86452346	      2.29265605	     -2.40765939	      4.53843616	     -6.33044205	     -1.50566217	    -49.01192860	      7.69882801	      7.29391898	    -13.21904107	      6.08551850	      7.01558112
      2.43000000	     -0.70513680	      5.18729605	    177.99203458	     -0.45629862	      1.01310328	     -0.13677608	     13.63112426	      8.57289868	     -5.70248323	    -15.94028489	      1.97610622	     -2.43123379	      3.67081911	     -6.09547284	     -0.90963666	    -47.51310623	      7.19611952	      7.40015803	    -13.05190086	      6.15536130	      6.57720345
      2.44000000	     -0.58820231	      5.23550505	    178.20669019	     -0.45021864	      1.01212110	     -0.13548701	     14.18843827	      8.51136759	     -6.00524880	    -15.99025904	      1.62333449	     -2.46921397	      2.80087495	     -5.90199101	     -0.29898066	    -45.85497914	      6.83469892	      7.44942902	    -12.90963234	      6.25124299	      6.15661086
      2.45000000	     -0.47468558	      5.30690258	    178.43839021	     -0.44398797	      1.01109740	     -0.13414173	     14.73702627	      8.46512503	     -6.32408517	    -16.01152614	      1.23847620	     -2.51004551	      1.94374417	     -5.75237748	      0.30754066	    -44.06226816	      6.68278611	      7.43906990	    -12.79120826	      6.37047915	      5.74089044
      2.46000000	     -0.38528144	      5.41166543	    178.68180830	     -0.43761670	      1.01006832	     -0.13274539	     15.24799039	      8.44627429	     -6.65654738	    -15.99334662	      0.82565639	     -2.56184049	      1.08226418	     -5.66037649	      0.88866688	    -42.16135297	      6.84211071	      7.36590894	    -12.71931367	      6.52182859	      5.35753711
      2.47000000	     -0.25661788	      5.51577609	    178.94052102	     -0.43106463	      1.00894514	     -0.13129209	     15.79924658	      8.41680659	     -7.00078060	    -15.94705177	      0.38983964	     -2.55116343	      0.32051411	     -5.59979980	      1.41388109	    -40.22062681	      7.31515315	      7.31750614	    -12.61889784	      6.67132360	      4.94806553
      2.48000000	     -0.15519005	      5.64164778	    179.20446072	     -0.42434339	      1.00783727	     -0.12981146	     16.31213166	      8.40453789	     -7.34719536	    -15.86332922	     -0.05429605	     -2.51158806	     -0.40863725	     -5.59100338	      1.86372464	    -38.28117138	      8.13915885	      7.23687848	    -12.57455537	      6.83541621	      4.57648264
      2.49000000	     -0.06658649	      5.76525528	    179.46817942	     -0.41745499	      1.00674337	     -0.12829383	     16.80026109	      8.38425125	     -7.68187831	    -15.74212583	     -0.49643673	     -2.41388350	     -1.06774567	     -5.60930231	      2.19597360	    -36.39725026	      9.23240463	      7.11165151	    -12.56574255	      6.99138833	      4.22065494
      2.50000000	     -0.00336894	      5.87578460	    179.72924094	     -0.41039395	      1.00570331	     -0.12674487	     17.24865333	      8.34562832	     -8.00099047	    -15.58207861	     -0.92306803	     -2.23009196	     -1.65458415	     -5.63547462	      2.40463979	    -34.61560814	     10.48975992	      6.88825908	    -12.60996528	      7.12488055	      3.89532632
      2.51000000	      0.02823577	      5.94949884	    179.97124018	     -0.40316410	      1.00475511	     -0.12519223	     17.65165659	      8.26850253	     -8.28260795	    -15.39316025	     -1.32391193	     -1.91380601	     -2.17321468	     -5.63792533	      2.47113862	    -32.95386698	     11.79013242	      6.49609417	    -12.71594725	      7.20579854	      3.60787600
      2.52000000	      0.05793173	      6.00261177	    180.21711861	     -0.39576672	      1.00383995	     -0.12361977	     18.02909473	      8.16596888	     -8.55616954	    -15.15241466	     -1.63014299	     -1.53884554	     -2.55737205	     -5.63788284	      2.39738693	    -31.47605266	     13.10968396	      6.05602321	    -12.84283854	      7.25847445	      3.30581314
      2.53000000	      0.05145029	      6.00221798	    180.43015773	     -0.38821477	      1.00306082	     -0.12206998	     18.35507256	      8.01257813	     -8.77940557	    -14.89098889	     -1.86209507	     -1.00810052	     -2.88091059	     -5.58036686	      2.21418782	    -30.13114400	     14.30727992	      5.44351691	    -13.03689141	      7.23757793	      3.05548424
      2.54000000	      0.02939427	      5.94618346	    180.60660940	     -0.38050867	      1.00239384	     -0.12055839	     18.65822090	      7.80520353	     -8.97745217	    -14.62231981	     -2.02604785	     -0.35013148	     -3.12082174	     -5.46066410	      1.94786380	    -28.92647805	     15.34359173	      4.72576670	    -13.27282368	      7.14151821	      2.84618026
      2.55000000	      0.00085253	      5.86791440	    180.76488011	     -0.37270840	      1.00180311	     -0.11908161	     18.92556647	      7.58037952	     -9.15390408	    -14.31276558	     -2.01451799	      0.33356244	     -3.26334401	     -5.31954923	      1.63490524	    -27.87943014	     16.27875403	      4.02885099	    -13.52615504	      7.01439665	      2.64417499
      2.56000000	     -0.02718277	      5.74666484	    180.88642986	     -0.36481513	      1.00130869	     -0.11763433	     19.16394166	      7.31703970	     -9.32319810	    -13.95827357	     -1.91546207	      1.07296745	     -3.31529922	     -5.12655915	      1.30578636	    -26.97377632	     17.04970693	      3.31515644	    -13.79125152	      6.83315793	      2.49032692
      2.57000000	     -0.05382651	      5.61270409	    180.97623851	     -0.35686105	      1.00088410	     -0.11626041	     19.38334420	      7.05146502	     -9.48055849	    -13.58270321	     -1.65610225	      1.77820365	     -3.28689669	     -4.91991164	      0.99750779	    -26.19725028	     17.70657725	      2.65298591	    -14.05923005	      6.62784598	      2.35631264
      2.58000000	     -0.07272895	      5.46840775	    181.03242026	     -0.34887538	      1.00052194	     -0.11492955	     19.58207266	      6.78633691	     -9.63302585	    -13.17131528	     -1.25097614	      2.40915900	     -3.17820439	     -4.70001685	      0.72660088	    -25.54538458	     18.25474884	      2.05109461	    -14.31775606	      6.40915853	      2.25423190
      2.59000000	     -0.08385026	      5.31920536	    181.05476930	     -0.34087952	      1.00021501	     -0.11363954	     19.76280871	      6.52924624	     -9.77810339	    -12.72968611	     -0.70591536	      2.92002199	     -2.99680908	     -4.47409855	      0.49976734	    -25.00958208	     18.70538421	      1.52474801	    -14.56190394	      6.18555115	      2.17503077
      2.60000000	     -0.08606683	      5.16843029	    181.04705350	     -0.33290723	      0.99995212	     -0.11240639	     19.92465820	      6.28726356	     -9.91155533	    -12.25593529	     -0.03973787	      3.28547326	     -2.74936360	     -4.24902703	      0.31940944	    -24.58147251	     19.07498410	      1.07562374	    -14.78535367	      5.95953062	      2.11997071
